<?xml version="1.0" standalone="no"?>
<!DOCTYPE svg PUBLIC "-//W3C//DTD SVG 20010904//EN"
 "http://www.w3.org/TR/2001/REC-SVG-20010904/DTD/svg10.dtd">
<svg version="1.0" xmlns="http://www.w3.org/2000/svg"
 width="323.000000pt" height="323.000000pt" viewBox="0 0 323.000000 323.000000"
 preserveAspectRatio="xMidYMid meet">
<metadata>
Created by potrace 1.11, written by Peter Selinger 2001-2013
</metadata>
<g transform="translate(0.000000,323.000000) scale(0.100000,-0.100000)"
fill="#000000" stroke="none">
<path d="M1680 3219 c0 -6 -9 -9 -20 -6 -11 3 -18 1 -14 -4 3 -5 -2 -9 -10 -9
-9 0 -16 -5 -16 -11 0 -5 -4 -7 -10 -4 -5 3 -18 1 -27 -4 -10 -6 -14 -11 -9
-11 6 0 1 -6 -9 -14 -15 -11 -18 -24 -16 -62 1 -27 7 -51 12 -55 6 -3 11 -10
12 -15 1 -5 5 -8 8 -7 3 1 5 -11 5 -26 -1 -26 -21 -56 -39 -58 -15 -2 -67 -53
-67 -66 0 -8 -4 -7 -10 3 -5 8 -10 10 -10 4 0 -6 -11 -23 -25 -38 -14 -15 -25
-24 -25 -21 0 3 -9 1 -20 -5 -15 -8 -20 -8 -20 2 0 10 -2 10 -9 -1 -6 -9 -11
-10 -15 -2 -4 6 -12 9 -17 5 -5 -3 -25 -7 -44 -9 -40 -3 -125 -42 -125 -56 0
-6 -4 -7 -10 -4 -5 3 -10 1 -10 -5 0 -6 -12 -23 -28 -38 -33 -33 -66 -98 -56
-114 4 -7 3 -8 -4 -4 -8 5 -11 -3 -8 -23 2 -17 0 -31 -3 -31 -9 0 -7 -43 3
-58 4 -7 4 -12 0 -12 -3 0 -1 -7 6 -15 6 -8 9 -18 6 -23 -3 -5 1 -21 9 -36 8
-14 9 -24 4 -20 -6 4 -5 -4 2 -17 7 -13 14 -40 15 -59 2 -20 8 -48 13 -64 6
-15 9 -32 5 -37 -3 -5 0 -9 6 -9 20 0 21 -29 2 -48 -11 -11 -23 -18 -26 -15
-3 4 -6 -5 -6 -20 0 -33 -11 -40 -77 -49 -7 -1 -13 -5 -13 -10 0 -5 -4 -7 -9
-4 -12 8 -61 -32 -61 -49 0 -9 -8 -12 -20 -10 -11 2 -18 0 -15 -6 5 -8 -15
-14 -37 -10 -5 0 -8 -3 -8 -8 0 -5 -18 -12 -40 -16 -22 -4 -38 -11 -35 -15 3
-5 -4 -7 -15 -5 -12 2 -24 -3 -30 -15 -6 -11 -18 -17 -30 -15 -11 2 -20 0 -20
-6 0 -5 -6 -9 -13 -9 -7 0 -19 -6 -26 -12 -6 -7 -17 -13 -24 -13 -7 -1 -11 -6
-10 -13 2 -7 -4 -9 -14 -5 -11 4 -14 3 -9 -5 4 -7 2 -12 -4 -12 -16 0 -65 -53
-84 -91 -18 -36 -22 -115 -6 -121 6 -2 12 -14 15 -27 2 -12 10 -30 17 -39 7
-8 12 -18 10 -21 -1 -3 5 -14 13 -24 8 -9 15 -22 15 -27 0 -6 5 -10 10 -10 6
0 10 -6 10 -13 0 -7 9 -18 20 -25 11 -7 20 -17 20 -24 0 -12 79 -87 93 -88 5
0 5 -4 2 -10 -3 -5 0 -10 8 -10 8 0 20 -7 27 -15 7 -8 16 -12 21 -9 5 3 9 0 9
-7 0 -6 8 -9 20 -6 11 3 20 2 20 -1 0 -4 13 -14 29 -24 47 -26 52 -47 29 -101
-11 -26 -25 -47 -30 -47 -5 0 -6 -5 -3 -10 3 -5 1 -10 -6 -10 -7 0 -9 -3 -6
-6 3 -4 2 -15 -3 -25 -24 -44 -12 -97 31 -141 18 -18 29 -26 25 -18 -4 8 2 3
14 -13 12 -15 26 -24 31 -21 5 3 9 2 8 -3 -4 -23 3 -42 24 -65 12 -14 23 -31
25 -38 1 -7 14 -27 28 -45 14 -19 26 -43 27 -54 1 -11 8 -23 16 -26 14 -5 14
-7 1 -15 -12 -8 -12 -10 -1 -10 7 0 11 -6 7 -15 -3 -8 -1 -15 5 -15 6 0 8 -4
4 -9 -3 -5 -1 -12 4 -16 6 -3 8 -12 4 -20 -3 -9 1 -15 8 -15 12 0 12 -2 0 -9
-9 -6 -10 -11 -2 -15 8 -5 8 -13 1 -27 -6 -10 -8 -19 -4 -19 3 0 0 -7 -7 -17
-8 -9 -13 -18 -11 -20 6 -6 -9 -63 -17 -63 -10 0 -31 -61 -25 -71 3 -5 -1 -9
-8 -9 -9 0 -9 -3 2 -10 11 -7 11 -10 2 -10 -9 0 -10 -5 -3 -18 6 -11 6 -24 0
-35 -7 -11 -6 -17 1 -17 7 0 8 -6 1 -19 -8 -14 -7 -20 4 -25 8 -3 15 -12 15
-21 0 -8 7 -15 16 -15 8 0 13 -4 10 -8 -2 -4 10 -9 27 -10 42 -2 65 -7 73 -15
4 -3 15 -2 25 4 12 6 19 6 19 0 0 -5 10 -8 22 -6 12 3 27 0 35 -6 10 -9 13 -8
13 2 0 12 2 12 9 0 6 -9 10 -10 16 -2 4 7 11 8 18 3 7 -4 42 -8 79 -8 38 1 68
-1 68 -4 0 -3 11 -6 25 -6 14 -1 25 2 25 7 0 5 5 9 11 9 5 0 8 -4 5 -9 -3 -5
5 -8 19 -8 14 0 22 4 19 8 -7 13 19 7 28 -6 5 -6 8 -5 8 3 0 7 5 10 10 7 6 -3
10 -1 10 5 0 7 6 8 18 2 9 -5 26 -6 37 -1 29 11 37 11 29 -3 -4 -6 3 -4 17 5
13 9 31 17 41 17 10 0 18 5 18 10 0 6 4 10 10 10 9 0 35 19 66 48 11 11 79 18
109 12 6 -1 12 -2 15 0 3 1 39 3 81 4 41 1 81 6 89 11 8 5 11 4 6 -3 -4 -7 3
-9 21 -7 16 2 28 4 28 5 0 1 66 5 168 10 9 1 17 6 17 12 0 5 7 8 15 4 8 -3 15
-1 15 4 0 5 9 12 21 15 13 4 18 12 15 21 -3 8 -2 12 4 9 5 -3 8 4 7 15 -1 11
-5 20 -10 20 -4 0 -5 5 -2 10 4 6 2 9 -3 8 -6 -2 -11 2 -13 7 -1 6 -9 16 -16
23 -7 8 -11 17 -8 22 3 5 1 11 -4 15 -6 3 -7 15 -2 28 5 12 5 34 1 49 -5 14
-6 29 -2 32 3 3 -1 6 -8 6 -7 0 -10 3 -7 7 4 3 2 12 -4 20 -6 7 -8 13 -5 13 4
0 -2 10 -14 22 -17 18 -26 59 -21 91 1 5 -3 6 -8 3 -15 -10 -7 58 9 72 42 35
73 54 65 41 -7 -11 -6 -12 7 -2 8 7 18 10 22 6 4 -4 4 1 0 10 -3 10 -2 17 2
15 5 -2 23 10 39 26 17 16 23 25 15 21 -8 -5 -3 4 13 20 15 15 27 30 28 34 3
27 9 45 16 50 11 9 16 29 18 87 1 29 6 57 10 64 4 7 2 16 -6 21 -12 7 -11 9 1
9 13 0 13 1 0 10 -13 8 -11 11 7 16 12 3 25 5 29 4 4 -1 10 4 15 11 6 10 11
10 23 0 12 -10 16 -10 16 -2 0 7 5 9 10 6 6 -3 10 -1 10 5 0 7 7 10 15 6 8 -3
15 -1 15 4 0 6 6 9 13 8 6 -2 11 3 9 10 -1 6 2 12 8 12 26 0 -15 51 -90 110
-17 14 -41 33 -52 42 -12 10 -25 18 -30 18 -4 0 -8 7 -8 15 0 8 -6 15 -12 15
-9 0 -8 4 2 10 8 5 11 10 5 10 -5 1 4 9 20 18 17 9 31 26 33 37 2 11 4 27 5
35 1 8 8 20 16 26 8 6 11 18 8 28 -4 9 -2 16 3 16 6 0 10 5 10 11 0 5 -4 8 -8
5 -4 -2 -6 11 -4 31 3 25 1 34 -7 29 -7 -4 -11 1 -12 13 -3 42 -17 71 -36 71
-8 0 -12 4 -9 9 5 8 -29 25 -46 22 -5 -1 -8 4 -8 10 0 5 -4 7 -10 4 -5 -3 -10
-1 -10 5 0 6 -4 9 -8 6 -5 -3 -25 4 -45 14 -21 11 -37 17 -37 13 0 -5 -4 -2
-9 5 -4 7 -24 14 -44 15 -25 1 -37 7 -38 17 0 11 -2 11 -6 2 -3 -8 -16 2 -33
27 -23 31 -34 38 -51 34 -13 -4 -20 -2 -16 3 3 6 -6 11 -21 12 -15 1 -28 7
-30 12 -2 6 -12 10 -23 10 -10 0 -19 7 -19 15 0 8 5 15 11 15 6 0 8 7 5 17 -4
10 -4 14 0 11 8 -9 95 83 88 94 -3 4 0 8 6 8 6 0 14 8 17 17 4 10 17 27 30 39
13 12 23 26 23 31 0 5 5 14 12 21 6 6 13 17 14 24 1 7 5 21 9 31 4 9 3 17 -3
17 -14 0 -6 51 10 61 7 5 9 9 4 9 -6 0 -5 5 2 12 7 7 12 23 12 36 0 15 4 21
12 16 7 -4 8 -3 4 5 -4 6 -1 25 8 41 9 19 10 28 3 23 -7 -4 -6 0 2 10 7 9 11
22 9 29 -3 7 4 21 14 31 10 9 18 14 18 11 0 -4 6 -2 13 3 6 6 25 10 41 9 15
-1 30 4 33 11 3 7 9 10 14 7 5 -3 9 0 9 5 0 6 3 10 8 9 13 -3 62 25 57 32 -3
4 7 15 21 24 18 13 23 22 18 38 -3 11 -2 18 3 15 5 -3 9 3 9 13 0 10 -3 17 -7
14 -4 -2 -10 5 -14 16 -3 11 -13 20 -21 20 -8 0 -14 5 -14 11 0 5 -4 7 -10 4
-5 -3 -10 0 -10 7 0 10 -2 10 -9 -1 -6 -9 -11 -10 -15 -2 -4 6 -12 9 -17 6 -5
-4 -9 -1 -9 6 0 8 -4 8 -15 -1 -12 -10 -15 -10 -15 1 0 9 -3 10 -8 4 -9 -13
-62 -17 -62 -4 0 5 -6 4 -14 -3 -8 -7 -12 -16 -10 -20 2 -3 -5 -4 -16 -1 -12
3 -20 0 -20 -6 0 -7 -4 -10 -9 -6 -5 3 -12 1 -16 -5 -10 -16 -44 -5 -75 23
-15 15 -31 27 -35 27 -4 0 -15 8 -24 18 -20 22 -71 55 -71 45 0 -4 -6 1 -13
12 -9 12 -19 15 -28 10 -8 -5 -11 -5 -7 0 10 11 -42 37 -59 30 -8 -3 -11 0 -8
6 4 6 1 9 -6 8 -23 -4 -69 12 -63 22 3 5 -2 9 -11 9 -9 0 -14 4 -11 8 3 5 -5
8 -17 8 -13 -1 -21 4 -20 11 2 7 0 12 -5 12 -19 -3 -33 2 -27 11 3 6 0 10 -9
10 -8 0 -13 8 -12 18 2 9 -3 22 -10 27 -11 9 -20 40 -23 81 -2 23 -56 71 -78
69 -12 -1 -20 2 -17 7 3 4 0 8 -5 8 -6 0 -11 -4 -11 -10 0 -5 -5 -10 -11 -10
-5 0 -7 5 -4 10 3 6 1 10 -4 10 -6 0 -11 -5 -11 -11z"/>
</g>
</svg>
